# xmcd
#
# Track frame offsets:
#	150
#	18060
#	33469
#	49167
#	67820
#	81794
#	99579
#	116478
#	136216
#	159902
#	167724
#	186230
#	210105
#	227112
#	241111
#	257662
#
# Disc length: 3582 seconds
#
# Revision: 6
# Processed by: cddbd v1.4PL0 Copyright (c) Steve Scherf et al.
# Submitted via: MusicManager 7.0.3.0 
#
DISCID=bf0dfc10
DTITLE=Janis Joplin - Absolute Janis - Disc 1
DYEAR=1997
DGENRE=
TTITLE0=Cry baby
TTITLE1=Get it while you can
TTITLE2=A woman left lonely
TTITLE3=Piece of my heart
TTITLE4=Down on me
TTITLE5=Try (just a little bit harder)
TTITLE6=My baby
TTITLE7=Kozmic blues
TTITLE8=Ball and chain
TTITLE9=I'll drown in my own tears
TTITLE10=Maybe
TTITLE11=To love somebody
TTITLE12=Raise your hand (live)
TTITLE13=Magic of love
TTITLE14=Bye, bye baby
TTITLE15=Buried alive in the blues
EXTD=
EXTT0=
EXTT1=
EXTT2=
EXTT3=
EXTT4=
EXTT5=
EXTT6=
EXTT7=
EXTT8=
EXTT9=
EXTT10=
EXTT11=
EXTT12=
EXTT13=
EXTT14=
EXTT15=
PLAYORDER=
